<?xml version="1.0" encoding="UTF-8"?> <svg xmlns="http://www.w3.org/2000/svg" width="104" height="104" viewBox="0 0 104 104" fill="none"><path d="M55.0454 59.8473L55.3153 64.2961C53.9134 64.6278 52.4755 64.7834 51.035 64.7602C46.5939 64.7602 44.226 62.8891 44.226 58.3303C44.226 54.7573 44.2939 50.8311 44.3274 48.6823H42.0265C42.0265 47.7128 42.0265 46.323 42.0265 45.3114C45.4817 44.7381 46.569 42.7835 47.083 39.0086H50.8828C50.7479 40.5677 50.6301 42.8257 50.6301 44.359H54.6664V48.6823H50.5717V56.4686C50.5717 59.4846 51.1776 60.3106 53.2594 60.3106C53.8842 60.3097 54.4988 60.1507 55.0454 59.8473ZM76.2468 55.0186C76.2468 53.3331 76.2468 51.0752 76.2468 51.0752C76.2468 46.0196 74.031 43.7359 67.7532 43.7359C64.2309 43.7359 61.7195 44.3504 57.7846 44.3504C58.0038 47.9071 58.0116 52.2974 57.9952 55.01C57.978 57.7235 57.9024 62.7292 57.7846 64.3305H64.5257C64.3736 62.7292 64.2309 58.1197 64.2559 55.01C64.2559 53.2411 64.2559 51.1001 64.3487 48.2268C65.1386 47.9595 65.9671 47.8228 66.8008 47.8228C69.1602 47.8228 69.9183 48.9264 69.9183 51.9768C69.9183 51.9768 69.9183 53.8901 69.9183 55.01C69.9183 57.7742 69.8263 62.7292 69.7077 64.3305H76.4488C76.3645 62.7292 76.2305 58.1197 76.2468 55.01V55.0186ZM31.1486 55.9039C30.4232 55.9039 29.1932 55.9039 28.5701 55.8532V55.9881C28.5701 58.8528 30.449 60.6647 33.9291 60.6647C35.8191 60.6561 37.6748 60.1567 39.3139 59.2156L39.558 63.6893C37.4333 64.468 35.1797 64.8376 32.9175 64.7765C25.848 64.7765 22.4521 62.3579 21.8625 55.8025C21.0194 55.8025 19.8401 55.7182 18.1795 55.7096C18.1374 56.8639 18.0953 57.8842 18.0953 58.7351C18.0541 60.6045 18.1529 62.4748 18.3901 64.3305C14.5146 64.3305 11.5141 64.7602 8.46371 64.7602C2.69214 64.7602 0.661133 62.3665 0.661133 58.2881C0.661133 54.2098 3.92209 52.196 10.9666 52.196H11.9361V51.7748C11.9361 48.9771 11.0929 47.8056 8.24454 47.8056C6.31065 47.8632 4.41545 48.3677 2.70847 49.2805L2.47297 44.8146C4.8134 44.023 7.27502 43.6516 9.74523 43.7187C15.9216 43.7187 18.2474 45.7497 18.2474 51.3537C18.2474 51.6648 18.2474 51.9682 18.2474 52.263C19.7559 52.263 20.8595 52.263 21.8703 52.3558C22.4943 46.8284 25.2412 43.7359 32.1766 43.7359C37.8897 43.7359 40.5181 46.1373 40.5181 49.7524C40.5524 53.9571 37.3585 55.9039 31.1486 55.9039ZM11.8768 60.6389C11.7754 59.2826 11.8175 57.3195 11.8347 55.6426C11.5983 55.6426 11.27 55.6426 10.9924 55.6426C8.05974 55.6426 6.88824 56.6284 6.88824 58.3638C6.88824 60.1 7.80705 60.8924 9.95581 60.8924C10.6039 60.8856 11.2485 60.8005 11.8768 60.6389ZM30.4154 52.4994C33.128 52.4994 34.4259 51.5892 34.4259 49.6347C34.4259 48.244 33.4822 47.4859 32.0244 47.4859C29.4545 47.4859 28.5615 49.5418 28.5615 52.3473V52.4487C29.0497 52.4908 29.7407 52.4994 30.3897 52.4994H30.4154ZM96.5887 64.2961C92.7123 64.2961 89.7127 64.7258 86.6623 64.7258C80.8898 64.7258 78.8588 62.333 78.8588 58.2546C78.8588 54.1763 82.1121 52.1625 89.1651 52.1625H90.1338V51.7413C90.1338 48.9436 89.2915 47.7721 86.4431 47.7721C84.5083 47.8297 82.614 48.3342 80.907 49.247L80.6707 44.7802C83.0231 43.9783 85.5002 43.6009 87.985 43.668C94.17 43.668 96.4873 45.699 96.4873 51.303C96.4873 54.3026 96.2939 56.8725 96.2939 58.6844C96.2328 60.5701 96.3145 62.4567 96.538 64.3305L96.5887 64.2961ZM90.0831 60.6054C89.9825 59.2491 90.0247 57.286 90.041 55.6091C89.8055 55.6091 89.4763 55.6091 89.1987 55.6091C86.266 55.6091 85.0945 56.5949 85.0945 58.3303C85.0945 60.0665 86.0133 60.8581 88.1621 60.8581C88.8007 60.8606 89.4367 60.7876 90.0582 60.6389L90.0831 60.6054Z" fill="#B2B2B3"></path><path d="M98.7204 48.0583C98.4935 47.7961 98.319 47.4936 98.2064 47.1653C98.087 46.818 98.0268 46.4536 98.0294 46.0866C98.0277 45.7187 98.0904 45.3543 98.215 45.0079C98.3345 44.6968 98.5116 44.4105 98.7376 44.1656C98.974 43.9103 99.261 43.7066 99.5799 43.5674C100.289 43.2708 101.087 43.2708 101.797 43.5674C102.116 43.7049 102.403 43.9086 102.639 44.1656C102.864 44.4114 103.041 44.6968 103.161 45.0079C103.286 45.3534 103.349 45.7187 103.347 46.0866C103.348 46.4544 103.285 46.8189 103.161 47.1653C103.046 47.4944 102.869 47.797 102.639 48.0583C102.403 48.3135 102.115 48.5173 101.797 48.6565C101.087 48.953 100.289 48.953 99.5799 48.6565C99.2542 48.5215 98.9611 48.317 98.7204 48.0583ZM99.7484 48.2439C100.036 48.3754 100.35 48.4416 100.667 48.4373C100.984 48.4442 101.298 48.378 101.586 48.2439C101.844 48.1219 102.073 47.9465 102.26 47.7299C102.447 47.5091 102.59 47.2546 102.681 46.9796C102.776 46.6942 102.825 46.396 102.825 46.0952C102.821 45.8081 102.772 45.5245 102.681 45.2529C102.589 44.9804 102.446 44.7286 102.26 44.5111C102.074 44.2936 101.845 44.1183 101.586 43.9971C101.002 43.7436 100.34 43.7436 99.757 43.9971C99.4983 44.1183 99.2688 44.2936 99.0831 44.5111C98.8966 44.7286 98.7531 44.9804 98.662 45.2529C98.57 45.5245 98.5219 45.8081 98.5184 46.0952C98.5107 46.5421 98.6181 46.983 98.8304 47.3758C99.0402 47.7523 99.3607 48.0557 99.7484 48.2439ZM99.6899 44.4011H100.17H100.592C100.948 44.3676 101.305 44.4664 101.594 44.6796C101.793 44.8601 101.904 45.1188 101.897 45.3869C101.9 45.5159 101.88 45.6448 101.839 45.7668C101.8 45.8734 101.742 45.974 101.67 46.0616C101.601 46.145 101.518 46.2164 101.425 46.2722C101.338 46.3272 101.24 46.3676 101.139 46.39L101.981 47.7463C101.938 47.7738 101.889 47.7935 101.839 47.8056H101.704C101.625 47.8056 101.547 47.7884 101.476 47.7549C101.397 47.7136 101.332 47.6483 101.29 47.5701L100.616 46.4493H100.204V47.7635H99.7063L99.6899 44.4011ZM100.692 45.943C101.148 45.943 101.375 45.7496 101.375 45.3534C101.385 45.2004 101.319 45.0517 101.198 44.9572C101.023 44.8532 100.819 44.8059 100.616 44.8231H100.372H100.178V45.9181L100.692 45.943Z" fill="#B2B2B3"></path></svg> 