<?xml version="1.0" encoding="UTF-8"?> <svg xmlns="http://www.w3.org/2000/svg" width="104" height="104" viewBox="0 0 104 104" fill="none"><path d="M30.3812 44.4985C27.9256 44.4985 24.1701 43.343 24.1701 43.343C24.1701 43.343 23.3516 45.4615 23.3516 48.3504C23.3516 51.2393 25.759 58.8467 30.6219 60.7726C30.6219 60.7726 37.5553 56.3911 37.5553 48.7356C37.5553 44.1615 36.8812 43.343 36.8812 43.343C36.8812 43.343 32.8367 44.4985 30.3812 44.4985Z" fill="white"></path><path d="M44.6816 50.4207V42.1392H47.8113C49.3039 42.0429 50.7965 42.6689 50.7965 44.3059C50.7965 45.2207 50.1705 45.8466 49.352 46.1355C50.4113 46.3763 51.1816 47.0985 51.1816 48.3022C51.1816 49.9392 49.1113 50.5652 47.8594 50.4689H44.6816V50.4207ZM47.8594 45.4615C48.6298 45.4615 49.015 45.1726 49.015 44.4985C49.015 43.8244 48.5816 43.5355 47.8594 43.5355H46.4631V45.5096H47.8594V45.4615ZM47.8594 49.0244C48.6779 49.0244 49.2557 48.88 49.2557 47.917C49.2557 46.954 48.6779 46.8096 47.8594 46.8096H46.4631V49.0244H47.8594ZM54.0224 42.1392V50.4207H52.289V42.1392H54.0224ZM59.2705 49.6985C58.8853 50.2281 58.3557 50.5652 57.489 50.5652C56.9113 50.5652 55.8039 50.1318 55.6113 49.3133C55.515 48.9763 55.515 48.5911 55.515 48.3985V44.6429H57.2483V48.1096C57.2483 48.7355 57.4409 49.4577 58.2594 49.4577C58.789 49.4577 59.2705 48.9763 59.2705 48.1096V44.6429H61.0039V49.3615C61.0039 49.6985 61.052 50.0355 61.052 50.3726H59.3187L59.2705 49.6985ZM64.0372 48.0133C64.0372 48.7837 64.1335 49.4577 65.0483 49.4577C65.6261 49.4577 65.9631 49.217 66.1076 48.6874H67.6483C67.5039 50.1318 66.3965 50.5652 65.0483 50.5652C63.0742 50.5652 62.2557 49.4577 62.2557 47.5318C62.2557 45.7985 63.2668 44.4503 65.0483 44.4503C66.1076 44.4503 67.0224 44.8355 67.5039 45.8466C67.6483 46.1837 67.7446 46.5207 67.7928 46.8577C67.8409 47.1948 67.8409 47.58 67.8409 47.9652H64.0372V48.0133ZM66.0594 46.8577C66.0594 46.2318 65.8668 45.654 65.0483 45.654C64.2779 45.654 64.0853 46.2318 64.0372 46.8577H66.0594ZM73.6668 44.7874C73.6668 43.9207 73.1372 43.1985 72.0779 43.1985C70.8261 43.1985 70.489 45.0763 70.489 46.2318C70.489 47.3874 70.8261 49.2652 72.0779 49.2652C73.1372 49.2652 73.6668 48.5429 73.6668 47.6763H75.5446C75.4483 49.7466 73.9557 50.517 72.0779 50.517C69.6705 50.517 68.6113 48.6392 68.6113 46.1837C68.6113 43.7763 69.6705 41.8503 72.0779 41.8503C74.0039 41.8503 75.4965 42.6207 75.5446 44.6911H73.6668V44.7874ZM78.0483 44.6429L78.0965 45.7022C78.4816 44.7874 79.2039 44.5466 80.0705 44.5948V46.1355H79.3002C79.0113 46.1355 78.6261 46.3281 78.4816 46.5689C78.289 46.9059 78.2409 47.1948 78.2409 47.58V50.4207H76.5076V45.7985C76.5076 45.5577 76.4594 45.0763 76.4594 44.6429H78.0483ZM83.8261 50.6133C81.9483 50.6133 80.7928 49.3615 80.7928 47.5318C80.7928 45.7022 81.9002 44.4503 83.8261 44.4503C85.7039 44.4503 86.8594 45.7022 86.8594 47.5318C86.8594 49.3615 85.7039 50.6133 83.8261 50.6133ZM83.8261 49.4577C84.8853 49.4577 85.0779 48.4466 85.0779 47.5318C85.0779 46.617 84.8853 45.6059 83.8261 45.6059C82.7668 45.6059 82.5742 46.617 82.5742 47.5318C82.6224 48.4466 82.7668 49.4577 83.8261 49.4577ZM91.0002 46.1837C91.0002 45.7985 90.615 45.6059 90.2298 45.6059C89.7483 45.6059 89.5557 45.7503 89.5557 46.1355C89.5557 47.0503 92.8779 46.5207 92.8779 48.6874C92.8779 49.9392 91.3372 50.5652 90.2779 50.5652C88.9298 50.5652 87.7742 50.0355 87.7261 48.7355H89.315C89.3631 49.1689 89.7483 49.4577 90.2779 49.4577C90.7594 49.4577 91.0965 49.2652 91.0965 48.8318C91.0965 48.3503 90.2779 48.1577 89.9409 48.1096C88.8335 47.8689 87.8224 47.58 87.8224 46.28C87.8224 45.0763 89.2668 44.5466 90.2779 44.5466C91.4816 44.5466 92.5409 44.98 92.589 46.28H91.0002V46.1837ZM96.7298 46.1837C96.7298 45.7985 96.3446 45.6059 95.9594 45.6059C95.4779 45.6059 95.2853 45.7503 95.2853 46.1355C95.2853 47.0503 98.6076 46.5207 98.6076 48.6874C98.6076 49.9392 97.0668 50.5652 96.0076 50.5652C94.6594 50.5652 93.5039 50.0355 93.4557 48.7355H95.0446C95.0927 49.1689 95.4779 49.4577 96.0076 49.4577C96.489 49.4577 96.8261 49.2652 96.8261 48.8318C96.8261 48.3503 96.0076 48.1577 95.6705 48.1096C94.5631 47.8689 93.552 47.58 93.552 46.28C93.552 45.0763 94.9964 44.5466 96.0076 44.5466C97.2113 44.5466 98.2705 44.98 98.3187 46.28H96.7298V46.1837ZM44.6816 61.6874V53.4059H47.8113C49.3039 53.3096 50.7965 53.9355 50.7965 55.5726C50.7965 56.4874 50.1705 57.1133 49.352 57.4022C50.4113 57.6429 51.1816 58.3652 51.1816 59.5689C51.1816 61.2059 49.1113 61.8318 47.8594 61.7355H44.6816V61.6874ZM47.8594 56.7281C48.6298 56.7281 49.015 56.4392 49.015 55.7652C49.015 55.0911 48.5816 54.8022 47.8594 54.8022H46.4631V56.7763L47.8594 56.7281ZM47.8594 60.2911C48.6779 60.2911 49.2557 60.1466 49.2557 59.1837C49.2557 58.2207 48.6779 58.0763 47.8594 58.0763H46.4631V60.2911H47.8594ZM54.0224 53.4059V61.6874H52.289V53.4059H54.0224ZM59.2705 60.9652C58.8853 61.4948 58.3557 61.8318 57.489 61.8318C56.9113 61.8318 55.8039 61.3985 55.6113 60.5318C55.515 60.1948 55.515 59.8096 55.515 59.617V55.8615H57.2483V59.3763C57.2483 60.0022 57.4409 60.7244 58.2594 60.7244C58.789 60.7244 59.2705 60.2429 59.2705 59.3763V55.9096H61.0039V60.6281C61.0039 60.9652 61.052 61.3022 61.052 61.6392H59.3187L59.2705 60.9652ZM64.0372 59.28C64.0372 60.0503 64.1335 60.7244 65.0483 60.7244C65.6261 60.7244 65.9631 60.4837 66.1076 59.954H67.6483C67.5039 61.3985 66.3965 61.8318 65.0483 61.8318C63.0742 61.8318 62.2557 60.7244 62.2557 58.7985C62.2557 57.0652 63.2668 55.717 65.0483 55.717C66.1076 55.717 67.0224 56.1022 67.5039 57.1133C67.6483 57.4503 67.7446 57.7874 67.7928 58.1244C67.8409 58.4615 67.8409 58.8466 67.8409 59.2318L64.0372 59.28ZM66.0594 58.1244C66.0594 57.4985 65.8668 56.9207 65.0483 56.9207C64.2779 56.9207 64.0853 57.4985 64.0372 58.1244H66.0594ZM73.4261 55.7652C73.3779 54.9466 72.8965 54.5133 72.0298 54.5133C71.3557 54.5133 70.7298 54.8503 70.7298 55.5726C70.7298 56.4874 71.5483 56.5837 72.2705 56.7281C73.5224 57.0652 75.4002 57.4022 75.4002 59.0874C75.4002 61.1578 73.6187 61.88 71.8372 61.88C69.9594 61.88 68.6113 61.1578 68.6594 59.0392H70.489C70.4409 59.954 70.9705 60.58 71.8853 60.58C72.6076 60.58 73.5224 60.3392 73.5224 59.4726C73.5224 58.5096 72.3187 58.4133 71.6446 58.2207C70.489 57.9318 68.9002 57.4022 68.9002 55.9096C68.9002 54.0318 70.6335 53.1652 72.3668 53.1652C73.9557 53.1652 75.2076 54.0318 75.2076 55.717L73.4261 55.7652ZM76.6039 61.6874V53.4059H78.3372V56.6318C78.6742 56.1022 79.252 55.7652 80.1187 55.7652C80.6964 55.7652 81.8039 56.1985 81.9965 57.017C82.0928 57.354 82.0928 57.7392 82.0928 57.9318V61.6874H80.4076V58.2207C80.4076 57.5948 80.215 56.9207 79.3965 56.9207C78.8668 56.9207 78.3853 57.4022 78.3853 58.2207V61.6874H76.6039ZM85.415 53.4059V54.8985H83.5853V53.4059H85.415ZM85.3187 55.9096V61.6874H83.5853V55.9096H85.3187ZM88.352 59.28C88.352 60.0503 88.4483 60.7244 89.3631 60.7244C89.9409 60.7244 90.2779 60.4837 90.4224 59.954H91.9631C91.8187 61.3985 90.7113 61.8318 89.3631 61.8318C87.389 61.8318 86.5705 60.7244 86.5705 58.7985C86.5705 57.0652 87.5816 55.717 89.3631 55.717C90.4224 55.717 91.3372 56.1022 91.8187 57.1133C91.9631 57.4503 92.0594 57.7874 92.1076 58.1244C92.1557 58.4615 92.1557 58.8466 92.1557 59.2318L88.352 59.28ZM90.3261 58.1244C90.3261 57.4985 90.1335 56.9207 89.315 56.9207C88.5446 56.9207 88.352 57.4985 88.3039 58.1244H90.3261ZM94.9002 53.4059V61.6874H93.1668V53.4059H94.9002ZM100.389 53.4059H102.122V60.58C102.122 60.9652 102.171 61.3503 102.171 61.7355H100.437C100.437 61.4466 100.389 61.2059 100.389 60.917C100.004 61.5911 99.3779 61.9281 98.6076 61.9281C96.9224 61.9281 96.1039 60.3392 96.1039 58.8466C96.1039 57.3059 97.0187 55.7652 98.8002 55.7652C99.3779 55.7652 100.004 56.1022 100.341 56.5837L100.389 53.4059ZM99.1372 60.7244C100.052 60.7244 100.389 59.617 100.389 58.7985C100.389 58.0281 100.1 56.8726 99.1372 56.8726C98.0298 56.8726 97.8853 57.8837 97.8853 58.7985C97.8853 59.6652 98.0298 60.7244 99.1372 60.7244ZM99.4261 50.4207C99.1372 50.4207 98.8965 50.18 98.8965 49.8911C98.8965 49.6022 99.1372 49.3615 99.4261 49.3615C99.715 49.3615 99.9557 49.6022 99.9557 49.8911C99.9557 50.18 99.7631 50.4207 99.4261 50.4207ZM99.4261 49.217C99.089 49.217 98.8002 49.5059 98.8002 49.8429C98.8002 50.18 99.089 50.4689 99.4261 50.4689C99.7631 50.4689 100.052 50.18 100.052 49.8429C100.052 49.5059 99.7631 49.217 99.4261 49.217Z" fill="#B2B2B3"></path><path d="M99.4263 49.8429H99.2818V49.6022H99.4744C99.5707 49.6022 99.667 49.6022 99.667 49.6985C99.667 49.8429 99.5226 49.8429 99.4263 49.8429ZM99.7633 49.6985C99.7633 49.554 99.7152 49.5059 99.5226 49.5059H99.1855V50.2281H99.2818V49.891H99.4263L99.667 50.2281H99.7633L99.5707 49.891C99.667 49.891 99.7633 49.8429 99.7633 49.6985ZM103.134 61.6392C102.845 61.6392 102.604 61.3985 102.604 61.1096C102.604 60.8207 102.845 60.5799 103.134 60.5799C103.423 60.5799 103.663 60.8207 103.663 61.1096C103.663 61.3985 103.423 61.6392 103.134 61.6392ZM103.134 60.4355C102.797 60.4355 102.508 60.7244 102.508 61.0614C102.508 61.3985 102.797 61.6873 103.134 61.6873C103.471 61.6873 103.76 61.3985 103.76 61.0614C103.76 60.7244 103.471 60.4355 103.134 60.4355Z" fill="#B2B2B3"></path><path d="M18.4892 59.5688C17.8633 59.5688 17.3818 60.0503 17.3818 60.6762C17.3818 61.3021 17.8633 61.7836 18.4892 61.7836C19.067 61.7836 19.5967 61.3021 19.5967 60.6762C19.5967 60.0503 19.1152 59.5688 18.4892 59.5688ZM18.4892 61.591C17.9596 61.591 17.5744 61.2058 17.5744 60.6762C17.5744 60.1466 17.9596 59.7614 18.4892 59.7614C19.0189 59.7614 19.4041 60.1466 19.4041 60.6762C19.4041 61.2058 19.067 61.591 18.4892 61.591Z" fill="#B2B2B3"></path><path d="M103.085 61.0615H102.941V60.8207H103.133C103.23 60.8207 103.326 60.8207 103.326 60.917C103.326 61.0615 103.23 61.0615 103.085 61.0615ZM103.47 60.917C103.47 60.7726 103.422 60.7244 103.23 60.7244H102.893V61.4466H102.989V61.1096H103.133L103.326 61.4466H103.422L103.23 61.1096C103.374 61.1096 103.47 61.0615 103.47 60.917Z" fill="#B2B2B3"></path><path d="M9.77455 57.5467C12.9389 57.5467 15.5042 54.9814 15.5042 51.817C15.5042 48.6526 12.9389 46.0874 9.77455 46.0874C6.61017 46.0874 4.04492 48.6526 4.04492 51.817C4.04492 54.9814 6.61017 57.5467 9.77455 57.5467Z" fill="white"></path><path d="M19.0662 60.3874C19.0662 60.1466 18.9699 60.0503 18.6328 60.0503H18.1032V61.3022H18.2477V60.7726H18.5366L18.8736 61.3022H19.0662L18.681 60.7726C18.9217 60.7244 19.0662 60.6281 19.0662 60.3874ZM18.4884 60.58H18.2477V60.1948H18.5847C18.7291 60.1948 18.8736 60.1948 18.8736 60.3874C18.9217 60.6281 18.6329 60.58 18.4884 60.58ZM9.82174 53.3096C9.77359 53.3096 9.77359 53.3096 9.72544 53.3578L7.89581 56.1503C8.47359 56.3911 9.09952 56.5355 9.77359 56.5355C10.4477 56.5355 11.0736 56.3911 11.6514 56.1503L9.82174 53.3578C9.86989 53.3096 9.82174 53.3096 9.82174 53.3096ZM8.04026 50.9985L5.29581 50.7578C5.19952 51.0948 5.15137 51.48 5.15137 51.8652C5.15137 53.0207 5.5847 54.08 6.25877 54.8985L8.1847 51.2392C8.281 51.1429 8.23285 51.0466 8.04026 50.9985Z" fill="#B2B2B3"></path><path d="M14.1556 47.4836V42.0429H5.44074V47.4836H0V56.1985H5.44074V61.6392H14.1556V56.1985H19.5963V47.4836H14.1556ZM9.82222 46.4725C11.9889 46.4725 13.8667 47.7244 14.6852 49.6022H10.8333C10.3037 49.6022 10.063 49.2651 10.0148 49.0244C10.0148 48.7355 10.063 48.6392 10.3037 48.3022C10.5926 47.917 10.4 47.2429 9.77407 47.1948C9.14815 47.1948 8.95556 47.917 9.24445 48.3022C9.48519 48.6392 9.53333 48.7355 9.53333 49.0244C9.53333 49.2651 9.29259 49.6022 8.71482 49.6022H4.86296C5.77778 47.7725 7.65556 46.4725 9.82222 46.4725ZM4.42963 51.8651C4.42963 51.1911 4.57407 50.5651 4.76667 49.9874L8.37778 50.3244C9.05185 50.4207 9.14815 51.0948 8.95556 51.4799L6.5 56.1503C5.24815 55.1392 4.42963 53.5985 4.42963 51.8651ZM12.7593 56.3911C11.8926 56.9688 10.8815 57.2577 9.77407 57.2577C8.66667 57.2577 7.65556 56.9207 6.78889 56.3911L9.43704 52.4911C9.62963 52.2022 9.91852 52.2503 10.1111 52.4911L12.7593 56.3911ZM13.1444 56.1022L10.6889 51.4799C10.4963 51.0948 10.5926 50.4207 11.2667 50.3244L14.8778 49.9874C15.1185 50.5651 15.2148 51.2392 15.2148 51.8651C15.2148 53.5985 14.3963 55.1392 13.1444 56.1022Z" fill="#B2B2B3"></path><path d="M13.3372 48.8318C12.7595 48.1577 11.9891 47.6281 11.1224 47.3873C11.4113 47.8207 11.1706 48.4466 10.9298 48.7355C10.8817 48.7836 10.9298 48.8318 10.9298 48.8318H13.3372ZM11.6039 50.9984C11.4113 50.9984 11.4113 51.0947 11.4595 51.191L13.3854 54.8503C14.0595 54.0318 14.4928 52.9725 14.4928 51.817C14.4928 51.4318 14.4447 51.0466 14.3484 50.7096L11.6039 50.9984ZM8.52243 47.4355C7.65577 47.6762 6.8854 48.2058 6.30762 48.8799H8.71503C8.76317 48.8799 8.76317 48.8318 8.71503 48.7836C8.47428 48.4466 8.23354 47.8688 8.52243 47.4355Z" fill="#B2B2B3"></path><path d="M37.1224 42.0429C35.0039 43.1022 32.8854 43.6799 30.4298 43.6799C27.9743 43.6799 25.8557 43.1022 23.7372 42.0429C22.3409 44.7874 22.1483 49.217 23.352 52.9244C24.5076 56.4874 26.7705 59.7614 30.4298 61.7836C34.1372 59.7614 36.352 56.4874 37.5076 52.9244C38.7594 49.217 38.5187 44.7874 37.1224 42.0429ZM36.1594 52.4911C35.1002 55.5244 33.5113 58.2207 30.478 60.0985C27.4446 58.2207 25.8076 55.5244 24.7965 52.4911C23.8817 49.7948 23.6409 46.617 24.652 44.1614C26.1928 44.6911 27.0594 44.8355 27.878 44.9799C28.6483 45.1244 29.3224 45.1725 30.478 45.1725C31.5854 45.1725 32.3076 45.0762 33.078 44.9799C33.8965 44.8355 34.8113 44.6911 36.3039 44.1614C37.2668 46.617 37.0743 49.7948 36.1594 52.4911Z" fill="#B2B2B3"></path><path d="M33.0777 45.654C32.2111 45.7503 31.2963 45.8466 30.4296 45.8466C29.5629 45.8466 28.6963 45.7503 27.7815 45.654C26.9148 45.5096 26.0481 45.317 25.1333 45.0762C24.5074 46.9059 24.6037 49.217 25.1333 51.2392C26.0481 55.0911 28.4074 58.0281 30.4296 59.3281C32.5 58.0281 34.8111 55.0911 35.7259 51.2392C36.2074 49.1688 36.3518 46.9059 35.7259 45.0762C34.8111 45.317 33.9926 45.5577 33.0777 45.654ZM29.9481 57.5466C29.9 57.7392 29.9963 57.8355 29.9963 57.9318C29.9481 58.0762 29.8518 58.0281 29.8037 57.9318C29.7074 57.7873 29.6592 57.6911 29.6592 57.4503C29.6111 57.0651 29.8037 56.9207 29.9 56.8244C29.9963 56.7281 30.0926 56.6799 30.0926 56.6799L30.1407 57.3059C30.0444 57.3059 29.9481 57.354 29.9481 57.5466ZM30.7666 58.1725C30.7666 58.2688 30.7185 58.3651 30.5259 58.3651C30.3815 58.3651 30.2852 58.317 30.2852 58.1244C30.237 57.354 30.237 55.9577 30.237 55.9577C30.237 55.9577 30.4296 56.0059 30.574 56.1022C30.6222 56.1022 30.7185 56.1985 30.8148 56.2948C30.8148 56.3429 30.8629 56.3429 30.8629 56.3911C30.8148 56.9207 30.7666 57.9318 30.7666 58.1725ZM31.3926 56.7281C31.2 56.8725 31.0074 56.9207 31.0074 56.9207V56.3429C31.0074 56.3429 31.0555 56.2948 31.0555 56.1985C31.0074 56.1022 30.6222 55.8133 30.4296 55.717C30.1889 55.6207 29.9 55.5244 29.7074 55.4762C29.2259 55.2836 29.0333 54.8503 29.2259 54.3688C29.274 54.1762 29.5148 54.0799 29.6111 54.0318C29.7074 53.9836 29.9 53.9355 29.9 53.9355L29.9481 54.6096C29.9481 54.6096 29.9 54.6096 29.8518 54.7059C29.8037 54.8022 29.9 54.8985 29.9481 54.8985C30.2852 55.0429 30.7185 55.2355 31.0555 55.4281C31.4889 55.6688 31.6333 55.8614 31.6333 56.1985C31.6814 56.4392 31.537 56.6318 31.3926 56.7281ZM30.1889 53.5985C30.5259 53.6466 30.6222 53.6466 30.9111 53.6948L30.8629 55.0429L30.574 54.8985L30.2852 54.754L30.1889 53.5985ZM32.1148 53.8873C32.0666 54.1281 31.9222 54.3207 31.6815 54.4651C31.4407 54.6096 31.1518 54.6096 31.1518 54.6096V53.791C31.1518 53.791 31.2 53.791 31.2481 53.7429C31.2963 53.6948 31.2963 53.6466 31.2963 53.5985C31.2963 53.5503 31.2481 53.5022 31.2 53.454C31.1037 53.4059 31.0074 53.4059 30.9592 53.4059L29.8037 53.2614C29.1296 53.1651 28.6 52.7318 28.6481 52.0577C28.6963 51.6244 29.1296 51.4799 29.4666 51.3355L29.7074 51.817C29.7555 52.0096 29.8037 52.1059 29.8037 52.1059C29.8037 52.1059 29.6592 52.154 29.6592 52.2503C29.6592 52.3466 29.8037 52.3948 29.8518 52.3948C30.3333 52.4429 31.0074 52.5392 31.3444 52.6836C31.5852 52.7799 31.7777 52.8762 31.9222 53.0688C32.1148 53.4059 32.1629 53.6466 32.1148 53.8873ZM29.9 50.7577C29.9 50.7577 30.0444 50.7577 30.4777 50.8059C30.7666 50.8059 31.0074 50.9022 31.0074 50.9022L30.9592 52.3466C30.6222 52.2985 30.4296 52.2503 30.1407 52.2022C30.0444 51.6725 29.9 51.4799 29.7074 51.0948C29.6592 50.9985 29.7074 50.9503 29.7074 50.9503C29.7555 50.9022 29.9481 50.854 29.9481 50.854L29.9 50.7577ZM31.2 52.2022C31.2 52.2022 31.2481 51.5281 31.2481 51.191C31.4407 51.1429 31.4889 50.9503 31.3926 50.8059C31.3444 50.7096 31.2 50.6614 31.1518 50.6614C30.7666 50.5651 30.4296 50.5651 30.0444 50.517C29.7074 50.4688 29.4185 50.4207 29.1296 50.3725C28.5037 50.2281 27.9259 49.891 27.637 49.3133C27.3 48.591 27.5889 47.6762 28.3111 47.3392C28.8407 47.0503 29.4185 47.0985 29.9481 47.3392C30.1407 47.3873 30.237 47.5799 30.3333 47.7244C30.3814 47.7725 30.4777 47.8207 30.5259 47.917C30.574 47.9651 30.4777 47.9651 30.4777 47.9651C30.3814 48.0133 29.9481 48.0133 29.8518 47.9651H29.274C29.4185 48.0614 29.6111 48.1577 29.8037 48.254C29.9 48.3022 29.9963 48.3022 30.0926 48.3503C30.1407 48.3503 30.237 48.3985 30.237 48.4466C30.237 48.4948 30.1407 48.4948 30.0444 48.5429C29.9 48.591 29.7074 48.591 29.5148 48.5429C29.2259 48.4948 29.0814 48.3022 28.8889 48.3985C28.7444 48.4948 28.7444 48.6392 28.7926 48.8318C28.8407 49.1207 29.1296 49.217 29.3703 49.3133C30.1889 49.6022 31.1037 49.4096 31.874 49.8429C32.1629 49.9873 32.5481 50.3244 32.5963 50.6614C32.837 52.0096 31.2 52.2022 31.2 52.2022ZM32.6444 47.7244C32.5963 47.8688 32.5481 47.8688 32.4518 47.9651C32.2592 48.1577 31.9703 48.3503 31.6815 48.591C31.4889 48.7355 31.3444 48.8318 31.2 49.0725C31.1518 49.1207 31.1037 49.217 31.1037 49.217C30.6222 49.1207 30.1889 49.1207 29.8037 49.0244V48.6392C29.8037 48.6392 30.237 48.6392 30.2852 48.3503C30.2852 48.3503 30.2852 48.254 30.237 48.2059C30.1889 48.1577 30.0444 48.1096 29.9963 48.1096C30.3333 48.1577 30.6703 48.3022 31.0074 48.4466C31.0074 48.3985 30.9592 48.254 30.9592 48.254C30.9111 48.2059 30.8629 48.1577 30.7185 48.1096C30.5259 48.0614 29.9963 48.0133 29.9963 48.0133H30.4296C30.5259 48.0133 30.6703 47.9651 30.6703 47.917C30.7185 47.8688 30.6703 47.7725 30.574 47.6762L30.4296 47.5318C30.3815 47.4355 30.2852 47.3392 30.237 47.2429C30.1407 47.0985 29.7555 46.954 29.7555 46.954C29.7555 46.954 29.7074 46.7133 29.8037 46.617C29.8518 46.5207 30.0444 46.5207 30.0926 46.5688C30.3333 46.7133 30.6703 46.8577 31.0074 46.954C31.1037 47.0022 31.1037 47.0022 31.1037 47.1466C31.1518 47.3873 31.0555 47.7244 31.1037 47.8688C31.1037 47.917 31.2 47.917 31.2 47.917C31.537 47.7244 31.7296 47.4355 32.0666 47.291C32.3074 47.1948 32.7407 47.3873 32.6444 47.7244ZM37.2185 59.617C36.6407 59.617 36.1592 60.0985 36.1592 60.6762C36.1592 61.254 36.6407 61.7355 37.2185 61.7355C37.7963 61.7355 38.2777 61.254 38.2777 60.6762C38.2777 60.0985 37.7963 59.617 37.2185 59.617ZM37.2185 61.5911C36.6889 61.5911 36.3037 61.2059 36.3037 60.6762C36.3037 60.1466 36.6889 59.7614 37.2185 59.7614C37.7481 59.7614 38.1333 60.1466 38.1333 60.6762C38.1333 61.2059 37.7481 61.5911 37.2185 61.5911Z" fill="#B2B2B3"></path><path d="M37.7969 60.3874C37.7969 60.1466 37.7006 60.0503 37.3636 60.0503H36.834V61.3022H36.9784V60.7726H37.2192L37.5562 61.3022H37.7488L37.3636 60.7726C37.6043 60.7244 37.7969 60.6281 37.7969 60.3874ZM37.2192 60.6281H36.9784V60.2429H37.3155C37.4599 60.2429 37.6043 60.2429 37.6043 60.4355C37.6043 60.6281 37.3636 60.6281 37.2192 60.6281ZM29.4192 47.3874C29.5155 47.4837 29.5155 47.58 29.6599 47.58C29.7562 47.58 29.8043 47.5318 29.8525 47.4837H29.9488C29.8043 47.3392 29.4673 47.3392 29.2266 47.2911C29.3229 47.3874 29.371 47.3392 29.4192 47.3874Z" fill="#B2B2B3"></path><path d="M37.7969 60.3873C37.7969 60.1466 37.7006 60.0503 37.3636 60.0503H36.834V61.3021H36.9784V60.7725H37.2192L37.5562 61.3021H37.7488L37.3636 60.7725C37.6043 60.7243 37.7969 60.6281 37.7969 60.3873ZM37.2192 60.6281H36.9784V60.2429H37.3155C37.4599 60.2429 37.6043 60.2429 37.6043 60.4355C37.6043 60.6281 37.3636 60.6281 37.2192 60.6281ZM29.4192 47.3873C29.5155 47.4836 29.5155 47.5799 29.6599 47.5799C29.7562 47.5799 29.8043 47.5318 29.8525 47.4836H29.9488C29.8043 47.3392 29.4673 47.3392 29.2266 47.291C29.3229 47.3873 29.371 47.3392 29.4192 47.3873Z" fill="#B2B2B3"></path></svg> 