<?xml version="1.0" encoding="UTF-8"?> <svg xmlns="http://www.w3.org/2000/svg" width="104" height="104" viewBox="0 0 104 104" fill="none"><path d="M12.0882 49.0643C13.0321 49.0643 19.158 51.7684 19.158 61.4814C19.158 66.1231 17.5948 69.992 16.6736 69.992C16.2667 69.992 16.1125 69.5858 16.1125 68.8052C16.1125 67.0865 16.7183 65.5641 16.7183 61.896C16.7183 54.8132 13.8011 51.9556 12.495 50.347C12.1096 49.8709 11.8174 49.5612 11.8174 49.2814C11.8174 49.1673 11.8984 49.0643 12.0882 49.0643ZM27.5287 49.2814C27.5287 49.5612 27.2365 49.8709 26.8511 50.347C25.5457 51.9556 22.6298 54.8132 22.6298 61.8947C22.6298 65.5634 23.2329 67.0858 23.2329 68.8052C23.2329 69.5858 23.0787 69.992 22.6732 69.992C21.75 69.992 20.1874 66.1231 20.1874 61.4814C20.1874 51.7684 26.3147 49.0643 27.2598 49.0643C27.4484 49.0643 27.5287 49.1673 27.5287 49.2814Z" fill="#B2B2B3"></path><path d="M17.4372 51.0085C17.4372 52.2769 18.4374 53.3038 19.6722 53.3038C20.9109 53.3038 21.9124 52.2769 21.9124 51.0085C21.9124 49.7387 20.9109 48.7132 19.6729 48.7132C18.4374 48.7132 17.4372 49.7387 17.4372 51.0085Z" fill="#B2B2B3"></path><path d="M8.05373 47.3799C6.88438 46.8513 6.00851 45.7914 5.86599 44.7633C6.73409 44.1919 8.10556 44.1479 9.27555 44.6772C10.5 45.2311 10.7869 46.1672 10.7941 46.9906C10.1702 47.5309 9.27943 47.9351 8.05373 47.3799ZM11.4082 41.1989C10.6554 40.0425 10.4805 38.5784 10.9463 37.5672C12.0612 37.5523 13.3271 38.3089 14.0786 39.464C14.8638 40.6755 14.5807 41.6874 14.109 42.4356C13.2319 42.562 12.1934 42.4104 11.4082 41.1989ZM13.1496 47.3229C12.2219 46.5364 11.7004 45.3438 11.8377 44.3688C12.7771 44.0747 14.0397 44.3921 14.9674 45.1773C15.9392 46.0026 15.9547 46.929 15.7468 47.6818C15.038 48.009 14.1214 48.145 13.1496 47.3223M15.9878 44.363C15.5887 43.0725 15.8135 41.644 16.5242 40.8128C17.5795 41.0959 18.5707 42.1512 18.9698 43.4417C19.3876 44.7938 18.848 45.6716 18.2047 46.2514C17.3463 46.1361 16.4037 45.715 15.9878 44.363ZM11.0999 53.7857C10.176 53.9658 9.20105 53.7009 8.67759 53.1457C8.95292 52.433 9.76077 51.8241 10.6859 51.6446C11.6544 51.4568 12.2238 51.8953 12.5789 52.387C12.4331 52.9766 12.0716 53.5959 11.0999 53.7857ZM8.65751 51.0486C7.60478 50.9346 6.64598 50.3295 6.26894 49.5586C6.80081 48.8861 7.8691 48.4994 8.92248 48.6134C10.0257 48.7332 10.4909 49.394 10.7092 50.0386C10.3568 50.6236 9.76142 51.1685 8.65751 51.0486ZM8.56357 43.2312C7.73758 42.5302 7.27438 41.471 7.39682 40.6049C8.23059 40.3418 9.35329 40.6249 10.1793 41.3233C11.0415 42.0567 11.0577 42.8801 10.8725 43.5499C10.2408 43.8414 9.42714 43.9619 8.56357 43.2312ZM14.192 37.6747C13.859 36.5993 14.0482 35.4073 14.639 34.716C15.52 34.9538 16.3467 35.8322 16.6797 36.9064C17.0275 38.0336 16.5767 38.7637 16.0396 39.2496C15.3237 39.1524 14.5418 38.8026 14.1926 37.6753M0.361328 65.5802C0.361328 65.6094 0.380115 65.6327 0.417042 65.6327C0.451377 65.6327 0.513569 65.6048 0.580944 65.5809C3.8862 64.3953 8.76635 62.9403 15.6153 62.4972C15.6237 62.435 15.6639 62.1298 15.6639 61.8947C15.6639 61.3991 15.6055 60.8821 15.59 60.796C8.572 61.4399 3.72813 63.4748 0.545961 65.4306C0.416394 65.5109 0.361328 65.529 0.361328 65.5802ZM28.5545 46.9899C28.5616 46.1672 28.8473 45.2304 30.0717 44.6765C31.2404 44.1472 32.6138 44.1906 33.4813 44.7627C33.3381 45.7908 32.4635 46.8506 31.2948 47.3786C30.0678 47.9338 29.1777 47.5302 28.5545 46.9899ZM25.2389 42.435C24.7685 41.6867 24.4841 40.6742 25.2706 39.4627C26.0214 38.3083 27.2867 37.5516 28.4022 37.5665C28.8667 38.5778 28.6905 40.0419 27.9403 41.1983C27.1552 42.4097 26.1147 42.5613 25.2389 42.435ZM23.5998 47.6812C23.3932 46.9284 23.4087 46.002 24.3805 45.1766C25.3095 44.3915 26.5702 44.074 27.5108 44.3688C27.6469 45.3425 27.126 46.5358 26.1977 47.3216C25.2278 48.1444 24.3086 48.0083 23.5998 47.6812ZM21.1426 46.2514C20.4993 45.6716 19.9603 44.7938 20.3782 43.4411C20.7753 42.1512 21.771 41.0966 22.8244 40.8128C23.5351 41.644 23.7599 43.0718 23.3608 44.363C22.9429 45.715 22.0042 46.1361 21.1426 46.2514ZM26.7703 52.3877C27.1254 51.8973 27.6922 51.4568 28.6627 51.6453C29.5891 51.8247 30.395 52.435 30.671 53.1463C30.1488 53.7015 29.1725 53.9658 28.2474 53.7864C27.277 53.5966 26.9135 52.9766 26.7703 52.3877ZM28.6394 50.0393C28.8577 49.3947 29.3235 48.7339 30.4267 48.614C31.4795 48.5 32.5464 48.8881 33.0783 49.5599C32.7019 50.3295 31.7425 50.9352 30.691 51.0493C29.5865 51.1691 28.9898 50.6243 28.6394 50.0393ZM28.4755 43.5506C28.2895 42.8807 28.3044 42.0573 29.1693 41.3233C29.9953 40.6256 31.1173 40.3418 31.9511 40.6055C32.0729 41.4717 31.6097 42.5309 30.7843 43.2312C29.9214 43.9632 29.1058 43.8427 28.4755 43.5506ZM23.3077 39.2502C22.7706 38.7644 22.321 38.0342 22.6695 36.907C23.0012 35.8329 23.8292 34.9544 24.7057 34.7167C25.3017 35.4086 25.4876 36.5999 25.1559 37.6753C24.8074 38.8026 24.0242 39.1531 23.3077 39.2502ZM38.8013 65.4312C35.6204 63.4754 30.7766 61.4405 23.7579 60.7966C23.7111 61.161 23.6864 61.5279 23.6841 61.8953C23.6841 62.1305 23.7249 62.4356 23.7326 62.4978C30.5809 62.9416 35.4598 64.396 38.7676 65.5815C38.8356 65.6055 38.8991 65.6333 38.9296 65.6333C38.9684 65.6333 38.9879 65.6094 38.9879 65.5815C38.9879 65.5297 38.9296 65.5115 38.8013 65.4312ZM19.6733 40.3807C18.7644 39.9577 17.8691 39.1712 17.8691 37.5367C17.8691 35.9754 18.6057 34.4737 19.674 33.8C20.7422 34.4737 21.4788 35.9748 21.4788 37.5361C21.4788 39.1712 20.5848 39.9577 19.6733 40.3807Z" fill="#B2B2B3"></path><path d="M53.9501 45.9067C53.9501 46.8694 54.743 47.6501 55.7252 47.6501C56.7047 47.6501 57.4989 46.8694 57.4989 45.9067C57.4989 44.9447 56.7047 44.1653 55.7245 44.1653C54.743 44.1653 53.9501 44.9447 53.9501 45.9067ZM67.8047 55.082C67.8047 57.8334 66.7293 58.9794 65.1732 58.9794C63.6035 58.9794 62.7244 57.6475 62.7244 55.3114C62.7244 52.9273 64.0881 50.9566 66.614 50.9566C67.1348 50.9566 67.4989 51.0084 67.8047 51.0823V55.082ZM67.9563 59.5949V60.4889C67.9563 62.9409 66.4462 63.8932 64.572 63.8932C62.8876 63.8932 61.6451 63.386 61.2518 63.2493V65.6754C61.5719 65.7616 62.9401 66.1918 64.892 66.1918C68.358 66.1918 70.674 64.7613 70.674 59.8585V49.2781C70.2296 49.1653 68.6022 48.7339 66.7286 48.7339C61.8666 48.7339 59.7774 51.9925 59.7774 55.518C59.7774 58.7591 61.408 61.3 64.5312 61.3C66.5907 61.3 67.5806 60.0561 67.9025 59.5949H67.9563ZM51.4235 58.0984C50.6429 58.4644 49.3939 58.7054 48.185 58.7054C44.8888 58.7054 42.4614 56.3472 42.4614 52.7544C42.4614 49.1854 44.872 46.7994 48.185 46.7994C49.8273 46.7994 50.996 47.2011 51.4242 47.4045V44.8365C50.7031 44.5689 49.5338 44.2988 47.8805 44.2988C42.7659 44.2988 39.3271 47.836 39.3271 52.7556C39.3271 57.4052 42.4912 61.2073 47.8812 61.2073C49.4619 61.2073 50.6513 60.9566 51.4235 60.6677V58.0984ZM94.833 55.082C94.833 57.8334 93.7563 58.9794 92.2009 58.9794C90.6305 58.9794 89.7462 57.6475 89.7462 55.3114C89.7462 52.9273 91.1171 50.9566 93.641 50.9566C94.042 50.9502 94.4422 50.9924 94.833 51.0823V55.082ZM98.0632 61.0318C97.9705 60.3619 97.7023 58.5933 97.7023 57.0709V49.2781C97.2534 49.1653 95.6254 48.7339 93.7563 48.7339C88.8918 48.7339 86.8051 51.9925 86.8051 55.518C86.8051 58.7591 88.4305 61.3 91.5563 61.3C93.8393 61.3 94.8616 59.8242 95.2477 59.0371H95.3228C95.352 59.4109 95.4543 60.6806 95.4887 61.0324H98.0645L98.0632 61.0318ZM57.1608 49.041H54.2921V61.0311H57.1608V49.041ZM73.9216 61.0311V52.7349C73.9216 51.6226 73.8205 49.4893 73.7914 49.0053H76.3684L76.4896 50.6916H76.5434C76.8427 50.22 77.8073 48.7339 80.0559 48.7339C82.771 48.7339 84.2798 50.7292 84.2798 53.2156V61.0318H81.4131V53.7825C81.4131 52.2555 80.5645 51.1017 79.103 51.1017C77.5961 51.1017 76.7928 52.3197 76.7928 53.7825V61.0311H73.9216ZM102.273 58.971C102.2 58.9289 102.08 58.9094 101.918 58.9094H101.668V59.5093H101.933C102.027 59.5141 102.122 59.502 102.213 59.4737C102.327 59.4284 102.384 59.3422 102.384 59.2133C102.384 59.0928 102.347 59.0124 102.273 58.971ZM101.957 58.7099C102.163 58.7099 102.315 58.7293 102.41 58.7682C102.583 58.8421 102.668 58.9801 102.668 59.1893C102.668 59.3383 102.614 59.4497 102.507 59.5178C102.433 59.5608 102.352 59.5882 102.267 59.5981C102.381 59.6098 102.485 59.6694 102.553 59.762C102.608 59.8363 102.64 59.9258 102.643 60.0185V60.1403C102.643 60.1792 102.643 60.22 102.645 60.2634C102.645 60.2932 102.651 60.323 102.661 60.3509L102.67 60.3703H102.397L102.393 60.3541C102.392 60.3489 102.389 60.3425 102.389 60.3353L102.383 60.2829V60.1513C102.383 59.9596 102.329 59.832 102.226 59.7704C102.163 59.7367 102.054 59.716 101.9 59.716H101.669V60.3703H101.376V58.7099H101.958H101.957ZM101.065 58.6257C100.943 58.7452 100.846 58.8884 100.781 59.0466C100.716 59.2048 100.684 59.3746 100.688 59.5456C100.688 59.9084 100.813 60.2194 101.065 60.474C101.305 60.7247 101.64 60.864 101.987 60.8581C102.348 60.8581 102.656 60.7299 102.91 60.474C103.16 60.22 103.287 59.9084 103.287 59.5476C103.287 59.1861 103.16 58.879 102.91 58.625C102.79 58.5014 102.647 58.4036 102.488 58.3377C102.329 58.2717 102.159 58.239 101.987 58.2415C101.815 58.2387 101.645 58.2713 101.487 58.3373C101.328 58.4033 101.185 58.5012 101.066 58.625L101.065 58.6257ZM103.058 60.6184C102.92 60.7621 102.753 60.8758 102.569 60.9524C102.385 61.0289 102.187 61.0668 101.987 61.0635C101.788 61.0669 101.59 61.0291 101.406 60.9525C101.221 60.8759 101.055 60.7622 100.917 60.6184C100.774 60.4787 100.662 60.3115 100.586 60.127C100.511 59.9424 100.473 59.7444 100.476 59.545C100.476 59.1278 100.626 58.7715 100.919 58.476C101.058 58.3335 101.224 58.2207 101.408 58.1447C101.591 58.0687 101.788 58.0311 101.987 58.0342C102.186 58.0308 102.384 58.0682 102.568 58.1442C102.752 58.2202 102.919 58.3331 103.058 58.476C103.355 58.7695 103.502 59.1265 103.502 59.5443C103.506 59.7442 103.468 59.9427 103.391 60.1274C103.315 60.3121 103.201 60.4792 103.058 60.6184Z" fill="#B2B2B3"></path></svg> 