<?xml version="1.0" encoding="UTF-8"?> <svg xmlns="http://www.w3.org/2000/svg" width="104" height="104" viewBox="0 0 104 104" fill="none"><path d="M2.86816 46.1412C4.63484 44.8216 6.79623 44.1389 9.00039 44.2043C10.3587 44.2286 11.7093 44.4134 13.0242 44.7546C13.2295 44.8208 13.4449 44.8498 13.6603 44.8404C13.6603 45.3621 13.7961 46.7987 13.9819 48.1853C13.9002 48.2623 13.7943 48.3087 13.6823 48.3166C13.5702 48.3244 13.4589 48.2931 13.3673 48.2281C13.0242 46.6844 12.0022 44.9119 8.70735 44.9119C5.23385 44.9119 2.27495 47.1132 2.27495 51.8231C2.27495 56.5331 5.29818 59.2276 9.02897 59.2276C10.0639 59.2647 11.0834 58.9688 11.9376 58.3835C12.7918 57.7981 13.4358 56.9541 13.7747 55.9756C13.87 55.9236 13.9798 55.9046 14.087 55.9214C14.1943 55.9382 14.293 55.9899 14.3679 56.0685C14.2099 57.1686 13.8385 58.2271 13.2744 59.1847C13.0031 59.2348 12.7374 59.3114 12.481 59.4134C11.3185 59.7461 10.1166 59.9216 8.90747 59.9351C6.90467 60.0027 4.92771 59.4674 3.23266 58.3985C2.21243 57.7112 1.3817 56.778 0.817116 55.685C0.252529 54.5921 -0.0277379 53.3746 0.00216508 52.1448C-0.012154 50.9913 0.23885 49.8501 0.73579 48.8091C1.23273 47.7681 1.9623 46.8553 2.86816 46.1412Z" fill="#B2B2B3"></path><path d="M15.7973 53.8601C15.7795 53.0316 15.9304 52.2082 16.2408 51.4398C16.5512 50.6715 17.0147 49.9743 17.603 49.3906C18.1913 48.807 18.8922 48.3491 19.663 48.0449C20.4338 47.7406 21.2584 47.5963 22.0868 47.6207C22.8983 47.575 23.7104 47.6999 24.4707 47.9872C25.231 48.2746 25.9226 48.7181 26.501 49.2891C27.0795 49.8601 27.5318 50.546 27.8289 51.3025C28.1261 52.059 28.2614 52.8694 28.2261 53.6815C28.2417 54.4923 28.0935 55.2979 27.7905 56.0502C27.4876 56.8025 27.0361 57.4859 26.4629 58.0597C25.8898 58.6335 25.2069 59.0858 24.455 59.3896C23.7031 59.6935 22.8976 59.8425 22.0868 59.828C18.163 59.828 15.7973 57.0406 15.7973 53.8601ZM26.4537 54.2318C26.4537 51.3158 25.1672 48.1639 21.7866 48.1639C19.9498 48.1639 17.5626 49.4218 17.5626 53.2955C17.5626 55.9114 18.8348 59.3062 22.3155 59.3062C24.4382 59.3062 26.4537 57.6839 26.4537 54.2318Z" fill="#B2B2B3"></path><path d="M35.5444 54.8249C35.9518 55.6612 36.3448 56.4688 36.7665 57.2478C37.2454 56.4188 37.6814 55.4968 38.1245 54.5962L39.8326 51.2514C40.626 49.6433 41.1406 48.6713 41.1763 47.8565C41.7767 47.9065 42.1483 47.9065 42.4985 47.9065C42.8487 47.9065 43.5277 47.9065 44.0709 47.8565C44.1174 47.921 44.1424 47.9985 44.1424 48.0781C44.1424 48.1576 44.1174 48.2351 44.0709 48.2996H43.6992C42.5843 48.4068 42.4413 48.7356 42.4628 49.9792C42.4628 51.8517 42.5128 55.118 42.6557 57.6695C42.7058 58.5486 42.6915 59.0274 43.5206 59.0989L44.0852 59.1489C44.142 59.2087 44.1737 59.288 44.1737 59.3705C44.1737 59.453 44.142 59.5323 44.0852 59.5921C43.3705 59.5563 42.6557 59.542 42.0054 59.542C41.355 59.542 40.5759 59.542 39.8612 59.5921C39.806 59.5315 39.7754 59.4525 39.7754 59.3705C39.7754 59.2885 39.806 59.2095 39.8612 59.1489L40.3329 59.1132C41.1977 59.0274 41.1977 58.7416 41.1977 57.6123L41.1477 50.2508C41.0262 50.4438 40.3544 51.8589 39.997 52.5522L38.4032 55.6469C37.6099 57.1978 36.8094 58.8631 36.4949 59.6778C36.4728 59.7028 36.4451 59.7223 36.4141 59.7347C36.383 59.7472 36.3495 59.7521 36.3163 59.7493C36.2565 59.747 36.2001 59.7213 36.159 59.6778C35.8588 58.7416 35.0083 57.0048 34.6009 56.14L33.0143 52.7308C32.6426 51.9161 32.2996 50.9941 31.8779 50.1793C31.8064 51.28 31.7564 52.3235 31.7064 53.3312C31.6563 54.3389 31.5777 55.9828 31.5777 57.4837C31.5777 58.7916 31.6849 59.0775 32.371 59.1275L33.0858 59.1775C33.2073 59.2847 33.1858 59.5706 33.0858 59.6207C32.4854 59.5849 31.7921 59.5706 31.1203 59.5706C30.5557 59.5706 29.9196 59.5706 29.3192 59.6207C29.2681 59.5581 29.2402 59.4799 29.2402 59.3991C29.2402 59.3183 29.2681 59.2401 29.3192 59.1775L29.7123 59.1275C30.427 59.0203 30.6986 58.9131 30.8058 57.6981C30.913 56.4831 30.9988 55.554 31.106 53.8101C31.1918 52.3806 31.2632 50.8369 31.299 49.8648C31.299 48.757 31.1918 48.4855 30.1197 48.3497H29.8338C29.789 48.28 29.7715 48.1962 29.7847 48.1144C29.7979 48.0326 29.8408 47.9586 29.9053 47.9065C30.4342 47.9065 30.8559 47.9566 31.3347 47.9566C31.8136 47.9566 32.221 47.9566 32.807 47.9065C32.8867 48.9354 33.1995 49.9326 33.7219 50.8226L35.5444 54.8249Z" fill="#B2B2B3"></path><path d="M49.6817 56.1613C49.6817 58.5484 49.7318 58.8415 51.1826 59.0201L51.7973 59.0916C51.8571 59.1759 51.8856 59.2785 51.8778 59.3817C51.8699 59.4848 51.8263 59.5819 51.7544 59.6562C50.4536 59.6133 49.7032 59.5919 48.7955 59.5919C47.8878 59.5919 47.023 59.5919 46.0224 59.6562C45.9492 59.5826 45.9047 59.4853 45.8968 59.3818C45.889 59.2783 45.9183 59.1754 45.9795 59.0916L46.4584 59.0201C47.7734 58.8415 47.8235 58.5699 47.8235 56.1613V47.7777C47.8235 45.8409 47.7734 45.4549 46.7514 45.3406L45.9366 45.2548C45.8982 45.2163 45.8686 45.1699 45.8497 45.1189C45.8308 45.0678 45.8232 45.0133 45.8272 44.9591C45.8313 44.9048 45.847 44.8521 45.8733 44.8045C45.8996 44.7568 45.9358 44.7154 45.9795 44.683C47.4753 44.5304 48.9791 44.4707 50.4822 44.5043C51.9914 44.3988 53.5003 44.713 54.8419 45.412C55.4142 45.7746 55.8828 46.2792 56.2022 46.8766C56.5216 47.474 56.6808 48.144 56.6645 48.8212C56.6761 49.5738 56.4671 50.3132 56.0632 50.9483C55.6593 51.5834 55.0782 52.0863 54.3917 52.3948C53.4081 52.8522 52.3387 53.0958 51.2541 53.1095C51.0969 53.038 51.0969 52.6949 51.2541 52.6521C53.7056 52.2018 54.5918 50.8152 54.5918 48.8355C54.5918 46.6342 53.2982 45.1976 50.9325 45.1976C49.7246 45.1976 49.7032 45.2905 49.7032 46.0195L49.6817 56.1613Z" fill="#B2B2B3"></path><path d="M60.6459 59.8278C59.6854 59.8536 58.7348 59.6295 57.8871 59.1774C57.5999 58.383 57.4383 57.5487 57.4082 56.7045C57.5011 56.5758 57.7656 56.5401 57.837 56.6473C58.1015 57.5478 58.8233 59.2846 60.8746 59.2846C61.157 59.3129 61.4423 59.2811 61.7116 59.1911C61.9809 59.1011 62.228 58.9551 62.4367 58.7626C62.6454 58.5701 62.8109 58.3356 62.9223 58.0744C63.0337 57.8133 63.0885 57.5315 63.083 57.2477C63.1065 56.7419 62.9843 56.24 62.7309 55.8016C62.4775 55.3633 62.1036 55.0069 61.6536 54.7748L59.974 53.6813C59.4288 53.3714 58.969 52.931 58.6359 52.3996C58.3028 51.8682 58.1069 51.2624 58.0657 50.6366C58.0657 48.957 59.3737 47.5991 61.6393 47.5991C62.1944 47.609 62.7464 47.6858 63.2831 47.8278C63.4847 47.8912 63.6938 47.9273 63.9049 47.935C64.1089 48.6316 64.2147 49.3533 64.2194 50.0791C64.1479 50.1792 63.8692 50.2363 63.7763 50.1291C63.6983 49.5559 63.4086 49.0326 62.9642 48.6622C62.5197 48.2918 61.9528 48.1012 61.3749 48.1279C59.6381 48.1279 59.2736 49.2786 59.2736 50.0934C59.3279 50.5467 59.4934 50.9796 59.7552 51.3537C60.017 51.7277 60.3671 52.0313 60.7745 52.2375L62.2039 53.1238C63.3117 53.8385 64.4124 54.8391 64.4124 56.5187C64.4124 58.527 62.9472 59.8278 60.6459 59.8278Z" fill="#B2B2B3"></path><path d="M71.3943 56.8833C71.3943 58.7772 71.5015 59.0274 72.4521 59.1275L73.1239 59.1775C73.1715 59.2436 73.1941 59.3244 73.1875 59.4056C73.181 59.4868 73.1458 59.563 73.0882 59.6206C71.9947 59.5849 71.3943 59.5706 70.6867 59.5706C69.9792 59.5706 69.3074 59.5706 68.3711 59.6206C68.3135 59.563 68.2783 59.4868 68.2717 59.4056C68.2652 59.3244 68.2877 59.2436 68.3354 59.1775L68.8857 59.1275C69.9077 59.0202 69.9435 58.7772 69.9435 56.8833V55.9827C69.9982 55.2095 69.8 54.4393 69.3788 53.7886L67.2919 49.7218C66.6915 48.5569 66.4271 48.464 65.8982 48.3782L65.3979 48.2924C65.3441 48.2311 65.3145 48.1524 65.3145 48.0709C65.3145 47.9893 65.3441 47.9106 65.3979 47.8493C65.9697 47.8493 66.6057 47.8993 67.4491 47.8993C68.2925 47.8993 68.8785 47.8993 69.3431 47.8493C69.5003 47.8993 69.5003 48.1852 69.3931 48.2924H69.1644C68.5498 48.3782 68.4497 48.464 68.4497 48.6069C68.5959 49.0761 68.78 49.5326 69 49.972C69.6576 51.2799 70.308 52.6736 70.9941 53.8958C71.5444 52.9595 72.1305 51.9303 72.6593 50.9083C73.1043 50.161 73.4891 49.3795 73.81 48.5712C73.81 48.464 73.4884 48.3425 73.0953 48.2924H72.7737C72.744 48.2624 72.7211 48.2264 72.7066 48.1867C72.6922 48.1471 72.6864 48.1047 72.6898 48.0627C72.6932 48.0206 72.7057 47.9797 72.7263 47.9429C72.747 47.9061 72.7753 47.8742 72.8094 47.8493C73.4455 47.8493 73.9601 47.8993 74.5105 47.8993C75.0608 47.8993 75.5539 47.8993 76.1543 47.8493C76.1875 47.8749 76.2149 47.9071 76.2349 47.9439C76.2549 47.9807 76.2669 48.0212 76.2703 48.063C76.2736 48.1047 76.2682 48.1467 76.2544 48.1862C76.2406 48.2257 76.2187 48.2619 76.19 48.2924L75.6897 48.3782C74.7749 48.5354 74.2603 49.6504 73.3598 51.1727L72.2448 53.1024C71.4658 54.4461 71.4158 54.6033 71.4158 55.9613L71.3943 56.8833Z" fill="#B2B2B3"></path><path d="M77.7916 49.1071C79.1689 48.084 80.8509 47.5552 82.5659 47.6062C83.6221 47.6254 84.6726 47.7669 85.6963 48.0279C85.8547 48.0828 86.022 48.107 86.1895 48.0994C86.1895 48.5068 86.2967 49.6217 86.4396 50.7009C86.3715 50.7548 86.2871 50.7842 86.2002 50.7842C86.1133 50.7842 86.0289 50.7548 85.9607 50.7009C85.6963 49.4931 84.903 48.1137 82.3372 48.1137C79.6284 48.1137 77.3342 49.829 77.3342 53.4883C77.3342 57.1476 79.6856 59.256 82.5873 59.256C83.3878 59.2891 84.178 59.0667 84.8436 58.6208C85.5092 58.1749 86.0156 57.5288 86.2895 56.776C86.3629 56.7356 86.4476 56.7208 86.5304 56.7337C86.6132 56.7466 86.6893 56.7866 86.7469 56.8474C86.6201 57.7018 86.3315 58.5241 85.8964 59.2703C85.6874 59.3114 85.4819 59.3687 85.2818 59.4418C84.3731 59.704 83.4329 59.841 82.4872 59.8492C80.9346 59.9069 79.4006 59.496 78.0846 58.67C77.2914 58.1341 76.6453 57.4077 76.2058 56.5573C75.7662 55.7069 75.5472 54.7598 75.5688 53.8028C75.554 52.902 75.7468 52.0098 76.1322 51.1955C76.5177 50.3812 77.0855 49.6666 77.7916 49.1071Z" fill="#B2B2B3"></path><path d="M91.8138 53.86C90.9633 53.86 90.9276 53.8957 90.9276 54.4246V56.919C90.9276 58.7772 91.0133 59.0202 92.0068 59.1274L92.5214 59.1775C92.6286 59.2489 92.5929 59.5706 92.4856 59.6206C91.5279 59.5848 90.9276 59.5706 90.2415 59.5706C89.5553 59.5706 88.8764 59.5706 88.1902 59.6206C88.1378 59.5586 88.1091 59.4802 88.1091 59.399C88.1091 59.3179 88.1378 59.2394 88.1902 59.1775L88.4332 59.1131C89.4195 58.9345 89.4553 58.7629 89.4553 56.9047V50.5366C89.4553 48.6855 89.3338 48.3925 88.4118 48.3138H87.9544C87.8472 48.2424 87.8829 47.9208 87.9544 47.8707C88.8192 47.8707 89.4195 47.9208 90.1843 47.9208C90.949 47.9208 91.4708 47.9208 92.2355 47.8707C92.3356 47.9208 92.3713 48.2424 92.2355 48.3138H91.8996C90.8704 48.4211 90.8347 48.6855 90.8347 50.5366V52.5735C90.8347 53.1167 90.8347 53.1382 91.7209 53.1382H96.7739C97.6244 53.1382 97.6602 53.1382 97.6602 52.5735V50.5366C97.6602 48.6855 97.6602 48.3925 96.5809 48.3138H96.245C96.1378 48.2424 96.1736 47.9208 96.2808 47.8707C97.0955 47.8707 97.7102 47.9208 98.4249 47.9208C99.1396 47.9208 99.7185 47.9208 100.512 47.8707C100.619 47.9208 100.655 48.2424 100.512 48.3138H100.14C99.1182 48.4211 99.0824 48.6855 99.0824 50.5366V56.9047C99.0824 58.7629 99.1182 58.9916 100.14 59.1131L100.569 59.1632C100.669 59.2346 100.633 59.5563 100.533 59.6063C99.6828 59.5706 99.1039 59.5563 98.3892 59.5563C97.6745 59.5563 97.0312 59.5563 96.245 59.6063C96.1874 59.5487 96.1522 59.4725 96.1457 59.3913C96.1391 59.3101 96.1617 59.2292 96.2093 59.1632L96.5452 59.1131C97.6244 58.9345 97.6244 58.7629 97.6244 56.9047V54.4246C97.6244 53.8957 97.6244 53.86 96.7382 53.86H91.8138Z" fill="#B2B2B3"></path><path d="M101.298 49.2431C101.296 49.0467 101.335 48.852 101.412 48.6713C101.476 48.51 101.576 48.3657 101.705 48.2497C101.828 48.1322 101.974 48.042 102.134 47.9852C102.299 47.9272 102.473 47.8982 102.649 47.8995C102.828 47.8983 103.007 47.9273 103.177 47.9852C103.341 48.0457 103.49 48.1408 103.613 48.2642C103.736 48.3876 103.832 48.5362 103.892 48.6999C103.967 48.8812 104.003 49.0758 103.999 49.2717C104.002 49.4699 103.966 49.6667 103.892 49.8506C103.822 50.0082 103.722 50.1512 103.599 50.2723C103.474 50.3846 103.328 50.4719 103.17 50.5296C103.002 50.5876 102.826 50.6166 102.649 50.6154C102.469 50.6165 102.29 50.5876 102.12 50.5296C101.962 50.4752 101.818 50.3874 101.698 50.2723C101.573 50.1531 101.473 50.0096 101.405 49.8506C101.327 49.6578 101.291 49.4509 101.298 49.2431ZM101.541 49.2431C101.539 49.4044 101.568 49.5645 101.626 49.7148C101.681 49.8499 101.764 49.9717 101.869 50.0722C101.968 50.1733 102.088 50.2514 102.22 50.3009C102.357 50.3523 102.502 50.3789 102.649 50.3795C102.8 50.3795 102.95 50.3529 103.092 50.3009C103.224 50.2514 103.343 50.1733 103.442 50.0722C103.544 49.9734 103.625 49.854 103.678 49.722C103.737 49.5694 103.766 49.4068 103.763 49.2431C103.764 49.0812 103.733 48.9208 103.671 48.7714C103.618 48.6372 103.537 48.5154 103.435 48.414C103.332 48.3152 103.21 48.2375 103.077 48.1853C102.94 48.1339 102.795 48.1073 102.649 48.1067C102.497 48.1059 102.347 48.1326 102.205 48.1853C102.075 48.2377 101.956 48.3154 101.855 48.414C101.753 48.5154 101.672 48.6372 101.619 48.7714C101.553 48.9205 101.514 49.0803 101.505 49.2431H101.541ZM102.477 49.7934H102.584H102.663V49.9149H102.012V49.822C102.068 49.801 102.125 49.7866 102.184 49.7791V48.6142H102.091C102.063 48.6042 102.036 48.5897 102.012 48.5713V48.4641H102.198H102.42H102.627H102.841C102.907 48.4797 102.97 48.5063 103.027 48.5427C103.077 48.5763 103.118 48.6202 103.149 48.6713C103.183 48.7296 103.201 48.7965 103.199 48.8643C103.202 48.9122 103.193 48.96 103.173 49.0036C103.153 49.0473 103.123 49.0853 103.084 49.1145C103.011 49.176 102.926 49.2222 102.834 49.2503L103.013 49.5361C103.074 49.6382 103.152 49.7298 103.242 49.8077L103.356 49.8649V49.9721H103.106L102.963 49.9149C102.882 49.8222 102.815 49.7188 102.763 49.6076C102.713 49.4933 102.67 49.3932 102.634 49.2931H102.448L102.477 49.7934ZM102.627 48.5927H102.541H102.477V49.1073H102.641C102.841 49.1073 102.942 49.0144 102.934 48.8214C102.934 48.7844 102.926 48.7479 102.91 48.7145C102.894 48.6811 102.87 48.6517 102.841 48.6285C102.804 48.6059 102.763 48.5911 102.72 48.585C102.677 48.5789 102.633 48.5815 102.591 48.5927H102.627Z" fill="#B2B2B3"></path></svg> 