<?xml version="1.0" encoding="UTF-8"?> <svg xmlns="http://www.w3.org/2000/svg" width="104" height="104" viewBox="0 0 104 104" fill="none"><path d="M29.2608 46.5443C28.9082 46.5443 28.6438 46.8088 28.6438 47.1613V59.2359C27.7625 59.4121 26.793 59.5884 25.8235 59.5884C23.7082 59.5884 23.0031 58.7952 23.0031 56.5037V47.1613C23.0031 46.8088 22.7386 46.5443 22.4743 46.5443H19.3014V56.5037C19.3014 61.1748 21.7693 62.6731 25.7353 62.6731C28.9082 62.6731 32.0811 61.7918 32.3455 61.7037V46.5443H29.2608ZM77.8235 62.4969C78.088 62.4969 78.4404 62.2324 78.4404 61.8799V49.7172C79.3218 49.541 80.2913 49.3647 81.2608 49.3647C83.376 49.3647 84.0811 50.1579 84.0811 52.4494V61.8799C84.0811 62.2325 84.3456 62.4969 84.6099 62.4969H87.7828V52.4494C87.7828 47.7782 85.315 46.2799 81.3489 46.2799C78.176 46.2799 75.0031 47.1613 74.7387 47.2494V62.4969H77.8235ZM65.132 46.2799C60.9896 46.2799 58.4337 48.4833 58.4337 53.3308V55.7104C58.4337 60.9986 61.254 62.7613 64.2506 62.7613C65.7489 62.7613 67.3353 61.7037 67.776 61.0867V62.0562C67.776 62.3207 68.0405 62.585 68.3048 62.585C68.3048 62.585 71.3896 62.585 71.4777 62.585V47.1613C71.566 47.1613 68.4811 46.2799 65.132 46.2799ZM67.8642 58.6189C67.1591 59.2359 66.6303 59.5884 65.132 59.5884C63.0167 59.6767 62.1353 58.3545 62.1353 55.6223V53.4189C62.1353 50.3342 63.2811 49.4528 65.132 49.4528C66.6303 49.4528 67.5116 49.5411 67.8642 49.629V58.6189ZM97.1252 46.2799C92.9828 46.2799 90.4269 48.4833 90.4269 53.3308V55.7104C90.4269 60.9986 93.2472 62.7613 96.332 62.7613C97.8303 62.7613 99.4167 61.7037 99.8574 61.0867V62.0562C99.8574 62.3207 100.122 62.585 100.386 62.585C100.386 62.585 103.471 62.585 103.559 62.585V47.1613C103.559 47.1613 100.474 46.2799 97.1252 46.2799ZM99.8574 58.6189C99.1523 59.2359 98.6235 59.5884 97.1252 59.5884C95.0099 59.5884 94.1286 58.3545 94.1286 55.6223V53.4189C94.1286 50.246 95.2743 49.4528 97.1252 49.4528C98.6235 49.4528 99.5049 49.5411 99.8574 49.629V58.6189ZM0.44043 62.4969C0.969243 62.4969 3.7896 62.4969 3.7896 62.4969C4.05409 62.4969 4.3184 62.2324 4.3184 61.968V53.1545H10.4879C11.5455 53.1545 12.2506 53.9477 12.2506 54.8291V61.968C12.2506 62.2325 12.5151 62.4969 12.7794 62.4969C12.7794 62.4969 15.9523 62.4969 16.1286 62.4969C16.1286 62.4969 16.1286 41.6969 16.1286 41.5206H12.7794C12.5149 41.5206 12.2506 41.7851 12.2506 42.0494V49.9816H5.90484C5.02347 49.9816 4.40652 49.2766 4.40652 48.4833V42.0494C4.31824 41.8732 4.14203 41.5206 3.7896 41.5206H0.44043C0.44043 41.6968 0.44043 62.4969 0.44043 62.4969ZM50.0608 46.2799C48.298 46.2799 46.6235 46.985 45.8302 47.5138C44.6845 46.6325 43.098 46.2799 41.1591 46.2799C38.2506 46.2799 35.7828 47.1613 35.4303 47.3376V62.585H38.6031C38.9557 62.585 39.132 62.3205 39.132 61.968V49.7172C39.9252 49.541 40.5421 49.4527 41.0709 49.4527C43.2743 49.4527 43.8032 50.334 43.8032 52.5374V61.9679C43.8032 62.2324 43.9794 62.5849 44.332 62.5849H46.976C47.3286 62.5849 47.5049 62.3204 47.5049 61.9679V50.1578C48.1218 49.7171 48.915 49.4527 49.7082 49.4527C51.3828 49.4527 52.0879 50.2459 52.0879 52.2731V61.9679C52.0879 62.2324 52.2641 62.5849 52.6167 62.5849C52.6167 62.5849 55.5252 62.5849 55.7896 62.5849V51.7443C55.8778 47.69 53.3218 46.2799 50.0608 46.2799Z" fill="#B2B2B3"></path></svg> 