<?xml version="1.0" encoding="UTF-8"?> <svg xmlns="http://www.w3.org/2000/svg" width="104" height="104" viewBox="0 0 104 104" fill="none"><path d="M73.0652 54.9431C73.0652 54.9431 72.268 54.3365 72.268 52.2569V33.2974H75.6821V49.276C75.6821 51.1824 75.4221 53.6433 76.8432 54.9431H73.0652ZM70.7602 54.9431C69.3391 53.6433 69.5991 51.1824 69.5991 49.276V33.2974H66.185V52.2395C66.185 54.3019 66.9822 54.9258 66.9822 54.9258H70.7602V54.9431ZM29.3404 48.0109C29.7044 48.0109 30.0683 48.0109 30.4323 48.0282C30.7962 48.0456 31.1601 48.0802 31.5068 48.1322L31.4721 51.6503C31.0908 51.9969 30.6229 52.2395 30.0857 52.4128C29.5484 52.5861 29.0112 52.6555 28.5086 52.6555C28.1966 52.6555 27.902 52.6208 27.6074 52.5515C27.3301 52.4822 27.0702 52.3782 26.8449 52.2222C26.6196 52.0662 26.4289 51.8756 26.3076 51.633C26.169 51.3903 26.0997 51.0957 26.0997 50.7318C26.0997 50.2639 26.1863 49.8653 26.3596 49.5187C26.5329 49.172 26.7755 48.8948 27.0702 48.6695C27.3648 48.4442 27.7114 48.2709 28.0927 48.1669C28.4913 48.0629 28.9072 48.0109 29.3404 48.0109ZM32.3386 54.9431H35.7874C35.2501 54.4405 35.0595 53.7473 34.9208 53.1754C34.7822 52.6035 34.7129 51.9796 34.7129 51.3384C34.7129 50.1772 34.7302 49.0334 34.7475 47.8723C34.7649 46.7111 34.7822 45.5673 34.7822 44.4062C34.7822 43.6436 34.6436 42.9504 34.3663 42.3785C34.089 41.7893 33.7077 41.304 33.2225 40.9228C32.7372 40.5242 32.1826 40.2295 31.5414 40.0389C30.9002 39.8483 30.2243 39.7443 29.5137 39.7443C28.5779 39.7443 27.8154 39.7443 26.8795 39.9349C25.7877 40.1602 25.0252 40.4722 24.228 41.0094V43.6263C24.228 43.6263 25.2505 42.8811 26.6542 42.6558C27.4168 42.5345 28.1966 42.4998 28.9765 42.4998C29.4271 42.4998 29.8257 42.5345 30.1376 42.6038C30.4669 42.6731 30.7269 42.7944 30.9348 42.9677C31.1428 43.1411 31.2815 43.3837 31.3854 43.6956C31.4894 44.0076 31.5241 44.3888 31.5241 44.8568V45.4113C31.1428 45.3593 30.7442 45.3247 30.3456 45.29C29.947 45.2727 29.5484 45.2554 29.1671 45.2554C28.3179 45.2554 27.5207 45.3767 26.7409 45.6366C25.961 45.8793 25.2851 46.2605 24.6959 46.7458C24.1066 47.231 23.6214 47.8203 23.2748 48.5308C22.8935 49.2587 22.7202 50.0559 22.7202 50.9744C22.7202 51.737 22.8762 52.3955 23.1708 52.9501C23.4828 53.5047 23.8814 53.9726 24.3839 54.3192C24.8865 54.6831 25.4584 54.9431 26.0997 55.1164C26.7409 55.2897 27.4168 55.3763 28.11 55.3763C28.4219 55.3763 28.7512 55.359 29.0805 55.3244C29.4098 55.2897 29.7564 55.2377 30.0857 55.1511C30.4149 55.0644 30.7269 54.9777 31.0388 54.8391C31.3508 54.7178 31.6281 54.5618 31.888 54.3885L32.3386 54.9431ZM84.1393 48.0109C84.5033 48.0109 84.8672 48.0109 85.2311 48.0282C85.5951 48.0456 85.959 48.0802 86.3056 48.1322L86.271 51.6503C85.8897 51.9969 85.4218 52.2395 84.8845 52.4128C84.3473 52.5861 83.81 52.6555 83.3074 52.6555C82.9955 52.6555 82.7009 52.6208 82.4063 52.5515C82.129 52.4822 81.869 52.3782 81.6437 52.2222C81.4184 52.0662 81.2451 51.8756 81.1065 51.633C80.9678 51.3903 80.8985 51.0957 80.8985 50.7318C80.8985 50.2639 80.9852 49.8653 81.1585 49.5187C81.3318 49.172 81.5744 48.8948 81.869 48.6695C82.1636 48.4442 82.5102 48.2709 82.9089 48.1669C83.3074 48.0629 83.7061 48.0109 84.1393 48.0109ZM87.1375 54.9431H90.257C90.0317 54.3365 89.8584 53.7473 89.7197 53.1754C89.5811 52.6035 89.5117 51.9796 89.5117 51.3384C89.5117 50.1772 89.5291 49.0334 89.5464 47.8723C89.5637 46.7111 89.5811 45.5673 89.5811 44.4062C89.5811 43.6436 89.4424 42.9504 89.1651 42.3785C88.8879 41.7893 88.5066 41.304 88.0213 40.9228C87.5361 40.5242 86.9815 40.2295 86.3403 40.0389C85.6991 39.8483 85.0232 39.7443 84.3126 39.7443C83.3768 39.7443 82.6142 39.7443 81.6784 39.9349C80.5866 40.1602 79.824 40.4722 79.0268 41.0094V43.6263C79.0268 43.6263 80.0493 42.8811 81.4531 42.6558C82.2156 42.5345 82.9955 42.4998 83.7754 42.4998C84.226 42.4998 84.6072 42.5345 84.9365 42.6038C85.2658 42.6731 85.5257 42.7944 85.7337 42.9677C85.9417 43.1411 86.0977 43.3837 86.1843 43.6956C86.271 44.0076 86.323 44.3888 86.323 44.8568V45.4113C85.9417 45.3593 85.5604 45.3247 85.1445 45.29C84.7459 45.2727 84.3473 45.2554 83.966 45.2554C83.1168 45.2554 82.3196 45.3767 81.5397 45.6366C80.7772 45.8793 80.084 46.2605 79.4948 46.7458C78.9055 47.231 78.4203 47.8203 78.0737 48.5308C77.7097 49.2414 77.5364 50.0386 77.5364 50.9571C77.5364 51.7196 77.6924 52.3782 77.987 52.9328C78.299 53.4873 78.6976 53.9552 79.2001 54.3019C79.7027 54.6658 80.2746 54.9258 80.9158 55.0991C81.5571 55.2724 82.233 55.359 82.9262 55.359C83.2381 55.359 83.5674 55.3417 83.8967 55.307C84.226 55.2724 84.5726 55.2204 84.9018 55.1337C85.2311 55.0471 85.5431 54.9604 85.855 54.8218C86.167 54.7005 86.4443 54.5445 86.7042 54.3712L87.1375 54.9431ZM16.7239 33.28C13.8297 37.0927 11.2995 42.6211 10.3983 47.0577C9.72238 42.8638 7.20947 37.0927 4.29795 33.28H0V54.9258H3.57007V38.2885C5.14714 40.8188 7.14014 45.4633 8.50925 51.6156H12.27C13.5524 46.0699 15.8227 40.7841 17.3824 38.2885V54.9258H21.0045V33.28H16.7239ZM43.2915 42.4478C41.4371 42.4478 40.2066 43.6263 40.2066 45.3767C40.2066 46.7458 41.0212 48.2189 43.2915 48.2189C44.1926 48.2189 44.9032 47.9936 45.4231 47.543C46.203 46.8324 46.2723 45.8099 46.255 45.394C46.2376 44.7008 45.9777 42.4478 43.2915 42.4478ZM49.5997 54.4232C50.6222 55.2724 51.1595 56.4335 51.1595 57.8719C51.1595 60.5235 48.9238 63.383 44.0193 63.383C41.8877 63.383 40.3279 62.9497 39.0975 62.0139C37.9537 61.1474 37.3818 59.9169 37.3125 58.5651C37.2605 57.3347 37.5551 56.4508 37.7804 55.9483L41.3158 56.8841C40.8652 57.352 40.6746 57.7333 40.6746 58.3398C40.6746 59.1544 41.2291 60.6621 44.158 60.6621C46.8095 60.6621 47.7627 59.2584 47.7627 58.1839C47.7627 56.6415 45.4924 56.1216 43.6034 55.5843L36.8619 53.8166C37.6764 52.3262 39.0455 50.5065 39.4961 50.0212C39.4788 50.0212 39.4614 50.0039 39.4614 50.0039C37.8324 49.172 36.8619 47.5257 36.8619 45.5327C36.8619 44.5621 37.0872 43.609 37.5031 42.7944C39.0628 39.7963 42.4596 39.6923 43.7247 39.7963C46.4976 40.0042 48.5079 40.2469 50.7089 39.5363V42.6731L48.8892 42.9851C49.4264 43.8516 49.5651 44.8048 49.5651 45.55C49.5651 48.7041 47.0868 50.9051 43.5168 50.9051C43.3088 50.9051 42.9102 50.9051 42.3729 50.8358H42.3383C42.1303 51.0437 41.8184 51.373 41.4544 51.8236C42.0957 51.9796 45.3538 52.7421 46.7922 53.1927H46.8269C47.2775 53.2967 48.7679 53.7473 49.5997 54.4232ZM100.69 54.9431H104V45.9486C104 41.8239 102.492 39.7789 99.1301 39.7616C97.1198 39.7443 94.9362 40.6108 94.9362 40.6108L94.5376 39.8829H91.1755C91.4701 40.2642 92.0247 41.3907 92.0247 43.1411V54.9431H95.3175V43.349C95.3175 43.349 96.2706 42.7598 97.5704 42.5518C99.6501 42.2225 100.673 42.8118 100.673 45.602V54.9431H100.69ZM57.9357 42.5172C56.064 42.5172 54.9722 43.8169 54.9722 46.4858H60.7952V46.3299C60.7779 43.7303 59.7727 42.5172 57.9357 42.5172ZM55.1628 49.0507C55.5441 52.2049 57.7277 52.4648 59.738 52.4648C61.6617 52.4648 63.5334 51.529 63.5334 51.529V54.2672C61.991 54.9431 60.5526 55.3763 58.9582 55.3763C54.1403 55.3763 51.4541 52.4648 51.4541 47.3177C51.4541 42.5865 53.915 39.7616 57.9877 39.7616C61.9737 39.7616 64.192 42.2052 64.192 47.283C64.192 47.6816 64.14 48.5655 64.0533 49.0507H55.1628Z" fill="#B2B2B3"></path><path d="M54.2962 70.6099C53.5856 70.6099 53.2217 70.2633 53.2217 69.5874V59.5357C53.2217 58.8598 53.5856 58.5132 54.2962 58.5132H55.1973V63.5737H59.0447V59.5357C59.0447 58.8598 59.4086 58.5132 60.1019 58.5132H61.0204V70.6272H60.1019C59.3913 70.6272 59.0447 70.2806 59.0447 69.6047V65.5494H55.1973V70.6272H54.2962V70.6099ZM65.4916 65.5147H69.3563C70.0669 65.5147 70.3962 65.1681 70.3962 64.5096V63.5564H65.4916V61.2514C65.4916 60.9915 65.561 60.7835 65.7343 60.6449C65.8729 60.5409 66.0289 60.4716 66.2195 60.4716H69.3563C70.0669 60.4716 70.3962 60.125 70.3962 59.4318V58.4786H66.1849C65.4916 58.4786 64.9024 58.6865 64.4171 59.1198C63.8279 59.6224 63.516 60.3156 63.516 61.2341V67.8197C63.516 68.7382 63.8279 69.4488 64.4171 69.9513C64.9371 70.3673 65.5263 70.5752 66.1849 70.5752H70.3962V69.6221C70.3962 68.9635 70.0495 68.6169 69.3563 68.6169H66.2195C66.0289 68.6169 65.8729 68.5649 65.7343 68.4263C65.561 68.3049 65.4916 68.097 65.4916 67.8197V65.5147ZM77.8829 59.3971C77.7962 59.0678 77.5883 58.8425 77.259 58.6692C76.9644 58.5306 76.6351 58.4786 76.2885 58.4786C75.3873 58.4786 74.8847 58.7905 74.7114 59.3971L71.7653 69.6221C71.7133 69.8647 71.7133 70.09 71.7999 70.246C71.9386 70.4886 72.1465 70.6099 72.4238 70.6099H73.533L74.4168 67.5077H78.1775L78.8361 69.8647C78.8881 70.09 79.0267 70.2633 79.2173 70.4019C79.4253 70.5406 79.6333 70.6099 79.8759 70.6099H81.089L77.8829 59.3971ZM74.9714 65.5494L76.2885 60.9048L77.6056 65.5494H74.9714ZM84.4685 58.4959H83.5673C82.8567 58.4959 82.4928 58.8425 82.4928 59.5184V68.2703C82.4928 69.0501 82.7008 69.6221 83.0994 70.0207C83.498 70.4193 84.0872 70.6099 84.8844 70.6099H88.4891V69.6567C88.4891 68.9982 88.1425 68.6516 87.432 68.6516H84.9884C84.6244 68.6516 84.4511 68.4782 84.4511 68.1316V58.4959H84.4685ZM87.7093 60.4716H90.1702V69.5701C90.1702 70.2459 90.5168 70.5926 91.21 70.5926H92.1285V60.4716H93.515C94.2255 60.4716 94.5721 60.125 94.5721 59.4318V58.4786H88.7491C88.0385 58.4786 87.6919 58.8252 87.6919 59.5011V60.4716H87.7093ZM98.1595 70.6099V65.5321H102.007V69.5874C102.007 70.2633 102.371 70.6099 103.064 70.6099H103.983V58.4959H103.064C102.353 58.4959 102.007 58.8425 102.007 59.5184V63.5564H98.1595V58.4959H97.2583C96.5651 58.4959 96.2012 58.8425 96.2012 59.5184V69.5701C96.2012 70.2459 96.5651 70.5926 97.2583 70.5926H98.1595V70.6099Z" fill="#B2B2B3"></path></svg> 